<svg xmlns="http://www.w3.org/2000/svg" width="24.921" height="24.968" viewBox="0 0 39.921 39.968">
  <g id="Group_18"
      transform="translate(-691.355 -562.985)">
    <path id="Path_24"
        d="M718.242,602.953a16.413,16.413,0,0,1-7.508-2.478,43.406,43.406,0,0,1-17.267-17.543c-1.8-3.389-2.762-6.909-1.614-10.748a9.7,9.7,0,0,1,2.868-4.433,4.9,4.9,0,0,1,5.076-1.008,2.6,2.6,0,0,1,1.422,1.386c.915,2.3,1.689,4.665,2.507,7.008a2.615,2.615,0,0,1-.672,2.973c-.666.642-1.233,1.388-1.92,2-.763.679-.635,1.342-.224,2.125a24.715,24.715,0,0,0,7.315,8.588c1.254.922,2.6,1.724,3.911,2.567a1.428,1.428,0,0,0,2.044-.255c.648-.7,1.391-1.312,2.065-1.99a2.361,2.361,0,0,1,2.548-.635c2.536.836,5.067,1.694,7.562,2.646a2.2,2.2,0,0,1,1.139,1.271,5.042,5.042,0,0,1-1.055,5.24A10.494,10.494,0,0,1,718.242,602.953Z" fill="#10488c" fill-rule="evenodd"/>
    <path id="Path_25"
        d="M707.037,562.993A25,25,0,0,1,731.108,585c.141,1.134.129,2.289.167,3.434.026.777-.309,1.368-1.138,1.338-.8-.028-1.119-.6-1.118-1.385a22.253,22.253,0,0,0-2.945-11.526c-4.123-6.99-10.223-10.911-18.374-11.521-.7-.052-1.4-.1-2.1-.144a1.025,1.025,0,0,1-1.076-1.1A1.041,1.041,0,0,1,705.6,563C706.08,562.972,706.56,562.993,707.037,562.993Z" fill="#10488c" fill-rule="evenodd"/>
    <path id="Path_26"
        d="M725.212,585.544c0,.32.116.708-.025.942-.25.413-.6.925-1.009,1.043-.612.179-1.1-.224-1.175-.924a31.808,31.808,0,0,0-.418-3.7c-1.642-6.954-7.024-11.29-14.273-11.612a2.17,2.17,0,0,1-1.293-.412,1.167,1.167,0,0,1-.149-1.123,1.473,1.473,0,0,1,1.1-.681,30.545,30.545,0,0,1,5.545.841A16.792,16.792,0,0,1,725.212,585.544Z" fill="#10488c" fill-rule="evenodd"/>
    <path id="Path_27"
        d="M719.093,584.1c.076.709-.11,1.353-.983,1.522-.767.148-1.237-.4-1.3-1.495a6.892,6.892,0,0,0-2.335-4.954,7.015,7.015,0,0,0-4.536-1.748c-.773-.039-1.318-.314-1.244-1.2.073-.853.648-1.1,1.405-1.083A9.182,9.182,0,0,1,719.093,584.1Z" fill="#10488c" fill-rule="evenodd"/>
  </g>
</svg>
